@startuml

entity 会員顧客 {
}

entity 受注 {
  + 受注番号
  ---
  年月日時刻
  金額
  # 会員ID (FK)
}

entity 受注明細 {
  + 受注番号 (FK)
  + 受注明細行番号
  ---
  数量
  # 商品コード (FK)
}

entity 出荷 {
  + 受注番号 (FK)
  + 出荷シーケンス番号
  ---
  年月日時刻
  金額
}

entity 出荷明細 {
  + 受注番号 (FK)
  + 出荷シーケンス番号 (FK)
  + 出荷明細行番号
  ---
  数量
  商品コード (FK)
}

entity 商品 {
  + 商品コード
  ---
  商品名
  販売価格
}

会員顧客 ||..o{ 受注
受注 ||--|{ 受注明細
受注 ||-r-o{ 出荷
出荷 ||--|{ 出荷明細
受注明細 }o..|| 商品
出荷明細 }o..|| 商品

@enduml
